<?xml version='1.0' encoding='UTF-8'?>
<svg width="31mm" height="31mm" version="1.1" viewBox="0 0 31 31" xmlns="http://www.w3.org/2000/svg"><path d="M1,1H2V2H1zM2,1H3V2H2zM3,1H4V2H3zM4,1H5V2H4zM5,1H6V2H5zM6,1H7V2H6zM7,1H8V2H7zM9,1H10V2H9zM11,1H12V2H11zM12,1H13V2H12zM13,1H14V2H13zM14,1H15V2H14zM15,1H16V2H15zM16,1H17V2H16zM19,1H20V2H19zM23,1H24V2H23zM24,1H25V2H24zM25,1H26V2H25zM26,1H27V2H26zM27,1H28V2H27zM28,1H29V2H28zM29,1H30V2H29zM1,2H2V3H1zM7,2H8V3H7zM13,2H14V3H13zM16,2H17V3H16zM18,2H19V3H18zM19,2H20V3H19zM23,2H24V3H23zM29,2H30V3H29zM1,3H2V4H1zM3,3H4V4H3zM4,3H5V4H4zM5,3H6V4H5zM7,3H8V4H7zM9,3H10V4H9zM10,3H11V4H10zM14,3H15V4H14zM18,3H19V4H18zM20,3H21V4H20zM23,3H24V4H23zM25,3H26V4H25zM26,3H27V4H26zM27,3H28V4H27zM29,3H30V4H29zM1,4H2V5H1zM3,4H4V5H3zM4,4H5V5H4zM5,4H6V5H5zM7,4H8V5H7zM10,4H11V5H10zM11,4H12V5H11zM16,4H17V5H16zM18,4H19V5H18zM19,4H20V5H19zM21,4H22V5H21zM23,4H24V5H23zM25,4H26V5H25zM26,4H27V5H26zM27,4H28V5H27zM29,4H30V5H29zM1,5H2V6H1zM3,5H4V6H3zM4,5H5V6H4zM5,5H6V6H5zM7,5H8V6H7zM10,5H11V6H10zM13,5H14V6H13zM16,5H17V6H16zM17,5H18V6H17zM18,5H19V6H18zM19,5H20V6H19zM23,5H24V6H23zM25,5H26V6H25zM26,5H27V6H26zM27,5H28V6H27zM29,5H30V6H29zM1,6H2V7H1zM7,6H8V7H7zM9,6H10V7H9zM11,6H12V7H11zM12,6H13V7H12zM14,6H15V7H14zM15,6H16V7H15zM18,6H19V7H18zM21,6H22V7H21zM23,6H24V7H23zM29,6H30V7H29zM1,7H2V8H1zM2,7H3V8H2zM3,7H4V8H3zM4,7H5V8H4zM5,7H6V8H5zM6,7H7V8H6zM7,7H8V8H7zM9,7H10V8H9zM11,7H12V8H11zM13,7H14V8H13zM15,7H16V8H15zM17,7H18V8H17zM19,7H20V8H19zM21,7H22V8H21zM23,7H24V8H23zM24,7H25V8H24zM25,7H26V8H25zM26,7H27V8H26zM27,7H28V8H27zM28,7H29V8H28zM29,7H30V8H29zM13,8H14V9H13zM14,8H15V9H14zM1,9H2V10H1zM3,9H4V10H3zM7,9H8V10H7zM8,9H9V10H8zM11,9H12V10H11zM14,9H15V10H14zM16,9H17V10H16zM20,9H21V10H20zM21,9H22V10H21zM24,9H25V10H24zM27,9H28V10H27zM29,9H30V10H29zM2,10H3V11H2zM3,10H4V11H3zM4,10H5V11H4zM5,10H6V11H5zM9,10H10V11H9zM11,10H12V11H11zM12,10H13V11H12zM16,10H17V11H16zM17,10H18V11H17zM18,10H19V11H18zM20,10H21V11H20zM21,10H22V11H21zM22,10H23V11H22zM23,10H24V11H23zM24,10H25V11H24zM28,10H29V11H28zM29,10H30V11H29zM4,11H5V12H4zM7,11H8V12H7zM10,11H11V12H10zM11,11H12V12H11zM12,11H13V12H12zM14,11H15V12H14zM15,11H16V12H15zM16,11H17V12H16zM17,11H18V12H17zM20,11H21V12H20zM23,11H24V12H23zM24,11H25V12H24zM25,11H26V12H25zM26,11H27V12H26zM27,11H28V12H27zM29,11H30V12H29zM5,12H6V13H5zM8,12H9V13H8zM10,12H11V13H10zM12,12H13V13H12zM15,12H16V13H15zM19,12H20V13H19zM21,12H22V13H21zM22,12H23V13H22zM25,12H26V13H25zM26,12H27V13H26zM1,13H2V14H1zM2,13H3V14H2zM3,13H4V14H3zM4,13H5V14H4zM5,13H6V14H5zM7,13H8V14H7zM9,13H10V14H9zM10,13H11V14H10zM11,13H12V14H11zM12,13H13V14H12zM13,13H14V14H13zM14,13H15V14H14zM15,13H16V14H15zM16,13H17V14H16zM21,13H22V14H21zM23,13H24V14H23zM24,13H25V14H24zM29,13H30V14H29zM3,14H4V15H3zM6,14H7V15H6zM9,14H10V15H9zM10,14H11V15H10zM11,14H12V15H11zM12,14H13V15H12zM13,14H14V15H13zM14,14H15V15H14zM15,14H16V15H15zM16,14H17V15H16zM17,14H18V15H17zM20,14H21V15H20zM21,14H22V15H21zM23,14H24V15H23zM24,14H25V15H24zM28,14H29V15H28zM29,14H30V15H29zM1,15H2V16H1zM2,15H3V16H2zM4,15H5V16H4zM6,15H7V16H6zM7,15H8V16H7zM8,15H9V16H8zM9,15H10V16H9zM10,15H11V16H10zM16,15H17V16H16zM19,15H20V16H19zM20,15H21V16H20zM22,15H23V16H22zM23,15H24V16H23zM24,15H25V16H24zM25,15H26V16H25zM29,15H30V16H29zM1,16H2V17H1zM2,16H3V17H2zM4,16H5V17H4zM5,16H6V17H5zM12,16H13V17H12zM13,16H14V17H13zM14,16H15V17H14zM19,16H20V17H19zM20,16H21V17H20zM21,16H22V17H21zM23,16H24V17H23zM24,16H25V17H24zM1,17H2V18H1zM5,17H6V18H5zM7,17H8V18H7zM10,17H11V18H10zM11,17H12V18H11zM12,17H13V18H12zM14,17H15V18H14zM16,17H17V18H16zM17,17H18V18H17zM21,17H22V18H21zM22,17H23V18H22zM23,17H24V18H23zM29,17H30V18H29zM2,18H3V19H2zM3,18H4V19H3zM4,18H5V19H4zM8,18H9V19H8zM9,18H10V19H9zM17,18H18V19H17zM18,18H19V19H18zM20,18H21V19H20zM23,18H24V19H23zM24,18H25V19H24zM27,18H28V19H27zM28,18H29V19H28zM29,18H30V19H29zM1,19H2V20H1zM2,19H3V20H2zM3,19H4V20H3zM4,19H5V20H4zM5,19H6V20H5zM7,19H8V20H7zM8,19H9V20H8zM10,19H11V20H10zM11,19H12V20H11zM12,19H13V20H12zM13,19H14V20H13zM14,19H15V20H14zM15,19H16V20H15zM16,19H17V20H16zM17,19H18V20H17zM20,19H21V20H20zM25,19H26V20H25zM26,19H27V20H26zM29,19H30V20H29zM3,20H4V21H3zM4,20H5V21H4zM5,20H6V21H5zM8,20H9V21H8zM10,20H11V21H10zM11,20H12V21H11zM12,20H13V21H12zM15,20H16V21H15zM16,20H17V21H16zM19,20H20V21H19zM21,20H22V21H21zM23,20H24V21H23zM25,20H26V21H25zM1,21H2V22H1zM2,21H3V22H2zM4,21H5V22H4zM5,21H6V22H5zM7,21H8V22H7zM10,21H11V22H10zM12,21H13V22H12zM14,21H15V22H14zM15,21H16V22H15zM19,21H20V22H19zM21,21H22V22H21zM22,21H23V22H22zM23,21H24V22H23zM24,21H25V22H24zM25,21H26V22H25zM26,21H27V22H26zM28,21H29V22H28zM9,22H10V23H9zM10,22H11V23H10zM11,22H12V23H11zM12,22H13V23H12zM13,22H14V23H13zM14,22H15V23H14zM15,22H16V23H15zM16,22H17V23H16zM17,22H18V23H17zM18,22H19V23H18zM21,22H22V23H21zM25,22H26V23H25zM26,22H27V23H26zM27,22H28V23H27zM29,22H30V23H29zM1,23H2V24H1zM2,23H3V24H2zM3,23H4V24H3zM4,23H5V24H4zM5,23H6V24H5zM6,23H7V24H6zM7,23H8V24H7zM9,23H10V24H9zM12,23H13V24H12zM16,23H17V24H16zM21,23H22V24H21zM23,23H24V24H23zM25,23H26V24H25zM29,23H30V24H29zM1,24H2V25H1zM7,24H8V25H7zM11,24H12V25H11zM12,24H13V25H12zM14,24H15V25H14zM19,24H20V25H19zM20,24H21V25H20zM21,24H22V25H21zM25,24H26V25H25zM28,24H29V25H28zM29,24H30V25H29zM1,25H2V26H1zM3,25H4V26H3zM4,25H5V26H4zM5,25H6V26H5zM7,25H8V26H7zM11,25H12V26H11zM12,25H13V26H12zM14,25H15V26H14zM17,25H18V26H17zM18,25H19V26H18zM20,25H21V26H20zM21,25H22V26H21zM22,25H23V26H22zM23,25H24V26H23zM24,25H25V26H24zM25,25H26V26H25zM26,25H27V26H26zM28,25H29V26H28zM29,25H30V26H29zM1,26H2V27H1zM3,26H4V27H3zM4,26H5V27H4zM5,26H6V27H5zM7,26H8V27H7zM11,26H12V27H11zM12,26H13V27H12zM14,26H15V27H14zM16,26H17V27H16zM17,26H18V27H17zM19,26H20V27H19zM20,26H21V27H20zM21,26H22V27H21zM22,26H23V27H22zM25,26H26V27H25zM26,26H27V27H26zM27,26H28V27H27zM29,26H30V27H29zM1,27H2V28H1zM3,27H4V28H3zM4,27H5V28H4zM5,27H6V28H5zM7,27H8V28H7zM9,27H10V28H9zM10,27H11V28H10zM12,27H13V28H12zM14,27H15V28H14zM16,27H17V28H16zM18,27H19V28H18zM19,27H20V28H19zM22,27H23V28H22zM25,27H26V28H25zM28,27H29V28H28zM29,27H30V28H29zM1,28H2V29H1zM7,28H8V29H7zM14,28H15V29H14zM17,28H18V29H17zM19,28H20V29H19zM21,28H22V29H21zM24,28H25V29H24zM25,28H26V29H25zM26,28H27V29H26zM1,29H2V30H1zM2,29H3V30H2zM3,29H4V30H3zM4,29H5V30H4zM5,29H6V30H5zM6,29H7V30H6zM7,29H8V30H7zM9,29H10V30H9zM11,29H12V30H11zM12,29H13V30H12zM15,29H16V30H15zM16,29H17V30H16zM21,29H22V30H21zM25,29H26V30H25zM26,29H27V30H26zM29,29H30V30H29z" id="qr-path" fill="#000000" fill-opacity="1" fill-rule="nonzero" stroke="none" /></svg>